# xmcd
#
# Track frame offsets: 
#        150
#        16166
#        32608
#        49873
#        68186
#        86991
#        105459
#        125304
#        139255
#        159060
#        179974
#        199407
#
# Disc length: 2833 seconds
#
# Revision: 1
# Processed by: cddbd v1.5.2PL0 Copyright (c) Steve Scherf et al.
# Submitted via: ExactAudioCopy v0.99pb3
#
DISCID=a50b0f0c
DTITLE=J. J. Johnson Quintet - Modern Jazz D10 Cool Jazz J. J. Johnson
DYEAR=1954
DGENRE=Jazz
TTITLE0=Too Marvelous For Words
TTITLE1=Jay
TTITLE2=Old Devil Moon
TTITLE3=It's You Or No One
TTITLE4=Time After Time
TTITLE5=Coffee Pot
TTITLE6=Daylie Double
TTITLE7=You're Mine, You
TTITLE8=Pennies From Heaven
TTITLE9=Groovin'
TTITLE10=Viscosity
TTITLE11=Portrait Of Jenny
EXTD=YEAR: 1954
EXTT0=
EXTT1=
EXTT2=
EXTT3=
EXTT4=
EXTT5=
EXTT6=
EXTT7=
EXTT8=
EXTT9=
EXTT10=
EXTT11=
PLAYORDER=
